<svg width="28" height="21" viewBox="0 0 28 21" fill="none" xmlns="http://www.w3.org/2000/svg">
<path d="M22.9423 2.08304C21.2147 1.30243 19.3628 0.725461 17.4262 0.397381C17.409 0.394063 17.3911 0.396201 17.3751 0.403498C17.3592 0.410795 17.3458 0.42289 17.337 0.438108C17.0999 0.855562 16.8357 1.39972 16.6505 1.82962C14.5966 1.52217 12.5085 1.52217 10.4546 1.82962C10.2483 1.35318 10.0157 0.888624 9.75789 0.438108C9.74915 0.422702 9.73593 0.410334 9.71999 0.402653C9.70405 0.394971 9.68615 0.392343 9.66868 0.395118C7.73325 0.723199 5.88137 1.30017 4.15258 2.08191C4.13771 2.08816 4.1251 2.09881 4.11645 2.11245C0.602402 7.28821 -0.360799 12.3361 0.112333 17.3207C0.113649 17.3329 0.117432 17.3447 0.123449 17.3554C0.129467 17.3661 0.137595 17.3755 0.147338 17.3829C2.19839 18.879 4.48607 20.0187 6.91458 20.7542C6.93151 20.7594 6.94962 20.7594 6.96654 20.7542C6.98346 20.7489 6.99841 20.7387 7.00943 20.7248C7.53202 20.0246 7.9951 19.2818 8.39382 18.504C8.39936 18.4934 8.40255 18.4817 8.40318 18.4697C8.40381 18.4578 8.40186 18.4458 8.39747 18.4346C8.39308 18.4235 8.38635 18.4134 8.37773 18.4051C8.36912 18.3968 8.35882 18.3904 8.34753 18.3864C7.61807 18.1112 6.91129 17.7791 6.23368 17.3931C6.2215 17.3861 6.21124 17.3763 6.20382 17.3643C6.1964 17.3524 6.19204 17.3388 6.19115 17.3248C6.19025 17.3108 6.19284 17.2968 6.19869 17.284C6.20454 17.2713 6.21346 17.2601 6.22465 17.2517C6.36693 17.1465 6.5092 17.0367 6.64471 16.927C6.6569 16.9171 6.6716 16.9108 6.68715 16.9088C6.7027 16.9068 6.7185 16.9092 6.73278 16.9157C11.1671 18.9113 15.9696 18.9113 20.352 16.9157C20.3663 16.9088 20.3823 16.9062 20.398 16.908C20.4138 16.9098 20.4287 16.916 20.4412 16.9259C20.5767 17.0367 20.7178 17.1465 20.8612 17.2517C20.8725 17.26 20.8816 17.2709 20.8876 17.2836C20.8937 17.2962 20.8965 17.3102 20.8958 17.3242C20.8951 17.3382 20.891 17.3519 20.8838 17.3639C20.8766 17.3759 20.8665 17.3859 20.8545 17.3931C20.1792 17.7823 19.4768 18.1115 18.7395 18.3853C18.7282 18.3894 18.7178 18.3959 18.7092 18.4043C18.7006 18.4127 18.6939 18.4229 18.6895 18.4342C18.6851 18.4454 18.6832 18.4574 18.6838 18.4695C18.6844 18.4816 18.6876 18.4933 18.6932 18.504C19.0997 19.2813 19.5649 20.0211 20.0764 20.7237C20.0871 20.7381 20.1019 20.7489 20.1189 20.7545C20.1358 20.7602 20.1542 20.7605 20.1713 20.7554C22.604 20.0219 24.8954 18.8817 26.9487 17.3829C26.9587 17.3759 26.9671 17.3668 26.9734 17.3563C26.9796 17.3457 26.9835 17.334 26.9848 17.3218C27.5494 11.5589 26.0386 6.55172 22.9773 2.11471C22.9698 2.10029 22.9574 2.08905 22.9423 2.08304ZM9.05666 14.2854C7.72196 14.2854 6.62099 13.076 6.62099 11.5929C6.62099 10.1086 7.7005 8.90033 9.05666 8.90033C10.423 8.90033 11.5138 10.1188 11.4923 11.5929C11.4923 13.0771 10.4128 14.2854 9.05666 14.2854V14.2854ZM18.062 14.2854C16.7261 14.2854 15.6263 13.076 15.6263 11.5929C15.6263 10.1086 16.7047 8.90033 18.062 8.90033C19.4283 8.90033 20.5191 10.1188 20.4976 11.5929C20.4976 13.0771 19.4294 14.2854 18.062 14.2854V14.2854Z" fill="white"/>
</svg>
