<svg width="28" height="27" viewBox="0 0 28 27" fill="none" xmlns="http://www.w3.org/2000/svg">
<path fill-rule="evenodd" clip-rule="evenodd" d="M14.4367 0C6.95011 0 0.886353 6.07515 0.886353 13.5758C0.886353 19.583 4.76513 24.657 10.1514 26.4558C10.8289 26.5745 11.083 26.1673 11.083 25.8109C11.083 25.4885 11.066 24.4194 11.066 23.2824C7.6615 23.9103 6.78073 22.4509 6.50973 21.6873C6.35729 21.297 5.69671 20.0921 5.12082 19.7697C4.64656 19.5152 3.96905 18.8873 5.10388 18.8703C6.17097 18.8533 6.93317 19.8545 7.18724 20.2618C8.40677 22.3152 10.3546 21.7382 11.1338 21.3818C11.2523 20.4994 11.608 19.9055 11.9976 19.5661C8.98266 19.2267 5.83221 18.0558 5.83221 12.863C5.83221 11.3867 6.35729 10.1648 7.22112 9.21455C7.08561 8.87515 6.61135 7.48364 7.35662 5.61697C7.35662 5.61697 8.49146 5.26061 11.083 7.00848C12.167 6.70303 13.3188 6.5503 14.4705 6.5503C15.6223 6.5503 16.7741 6.70303 17.8581 7.00848C20.4496 5.24364 21.5844 5.61697 21.5844 5.61697C22.3297 7.48364 21.8554 8.87515 21.7199 9.21455C22.5838 10.1648 23.1088 11.3697 23.1088 12.863C23.1088 18.0727 19.9415 19.2267 16.9265 19.5661C17.4177 19.9903 17.8412 20.8048 17.8412 22.0776C17.8412 23.8933 17.8242 25.3527 17.8242 25.8109C17.8242 26.1673 18.0783 26.5915 18.7558 26.4558C21.4457 25.5459 23.7832 23.8138 25.4391 21.5033C27.0951 19.1928 27.9861 16.4202 27.987 13.5758C27.987 6.07515 21.9232 0 14.4367 0Z" fill="white"/>
</svg>
