<svg width="27" height="28" viewBox="0 0 27 28" fill="none" xmlns="http://www.w3.org/2000/svg">
<path fill-rule="evenodd" clip-rule="evenodd" d="M0.0876468 2.33928C0.0876468 1.71886 0.324532 1.12386 0.74619 0.68516C1.16785 0.246461 1.73974 3.11858e-06 2.33606 3.11858e-06H24.7492C25.0447 -0.000499038 25.3374 0.0596468 25.6106 0.176997C25.8837 0.294347 26.1319 0.466597 26.341 0.683886C26.5501 0.901174 26.7159 1.15923 26.829 1.44329C26.9421 1.72734 27.0002 2.03182 27 2.33928V25.6582C27.0004 25.9657 26.9424 26.2703 26.8295 26.5545C26.7166 26.8386 26.5509 27.0969 26.3419 27.3144C26.133 27.5319 25.8849 27.7044 25.6118 27.8221C25.3387 27.9397 25.046 28.0002 24.7504 28H2.33606C2.04069 28 1.74821 27.9395 1.47534 27.8218C1.20247 27.7042 0.954558 27.5317 0.745758 27.3144C0.536958 27.097 0.371367 26.839 0.258446 26.555C0.145524 26.2711 0.0874861 25.9668 0.0876468 25.6595V2.33928ZM10.7401 10.6756H14.3842V12.5796C14.9103 11.4851 16.2559 10.5 18.278 10.5C22.1546 10.5 23.0733 12.6802 23.0733 16.6804V24.0902H19.1502V17.5916C19.1502 15.3135 18.6242 14.028 17.2883 14.028C15.4351 14.028 14.6644 15.414 14.6644 17.5916V24.0902H10.7401V10.6756ZM4.01196 23.9158H7.93628V10.5H4.01196V23.9145V23.9158ZM8.49777 6.12437C8.50517 6.47395 8.44538 6.82155 8.32191 7.14677C8.19844 7.47198 8.01378 7.76827 7.77876 8.01822C7.54374 8.26818 7.2631 8.46679 6.95331 8.60237C6.64352 8.73796 6.31082 8.80781 5.97473 8.80781C5.63865 8.80781 5.30595 8.73796 4.99616 8.60237C4.68637 8.46679 4.40573 8.26818 4.17071 8.01822C3.93569 7.76827 3.75103 7.47198 3.62756 7.14677C3.50409 6.82155 3.4443 6.47395 3.4517 6.12437C3.46622 5.43818 3.73842 4.78519 4.21 4.30524C4.68158 3.82529 5.31504 3.55653 5.97473 3.55653C6.63443 3.55653 7.26789 3.82529 7.73947 4.30524C8.21105 4.78519 8.48325 5.43818 8.49777 6.12437V6.12437Z" fill="white"/>
</svg>
