<svg width="23" height="19" viewBox="0 0 23 19" fill="none" xmlns="http://www.w3.org/2000/svg">
<path d="M22.7857 5.60713V14.8183C22.7858 15.7574 22.4272 16.661 21.7834 17.3436C21.1396 18.0263 20.2595 18.4362 19.3236 18.4894L19.1159 18.4951H3.87178C2.93439 18.4951 2.03252 18.1358 1.35116 17.4908C0.669804 16.8458 0.260621 15.9641 0.20755 15.0264L0.201904 14.8183V5.60713L11.1009 11.3271C11.2221 11.3907 11.3569 11.4239 11.4938 11.4239C11.6307 11.4239 11.7655 11.3907 11.8868 11.3271L22.7857 5.60713ZM3.87178 0.394043H19.1159C20.0255 0.393933 20.9028 0.732301 21.5775 1.34352C22.2523 1.95473 22.6764 2.79523 22.7677 3.702L11.4938 9.61877L0.219971 3.702C0.30751 2.83124 0.702193 2.02033 1.33307 1.41501C1.96395 0.809697 2.78965 0.449689 3.66175 0.3997L3.87178 0.394043H19.1159H3.87178Z" fill="white"/>
</svg>
